<?xml version="1.0" encoding="UTF-8" standalone="no"?>
<!-- Created with Inkscape (http://www.inkscape.org/) -->

<svg
   xmlns:dc="http://purl.org/dc/elements/1.1/"
   xmlns:cc="http://creativecommons.org/ns#"
   xmlns:rdf="http://www.w3.org/1999/02/22-rdf-syntax-ns#"
   xmlns:svg="http://www.w3.org/2000/svg"
   xmlns="http://www.w3.org/2000/svg"
   xmlns:xlink="http://www.w3.org/1999/xlink"
   xmlns:sodipodi="http://sodipodi.sourceforge.net/DTD/sodipodi-0.dtd"
   xmlns:inkscape="http://www.inkscape.org/namespaces/inkscape"
   width="206.71458mm"
   height="89.152084mm"
   viewBox="0 0 206.71458 89.152084"
   version="1.1"
   id="svg8"
   inkscape:export-filename="/home/nicolas/gradient-2.png"
   inkscape:export-xdpi="125.82"
   inkscape:export-ydpi="125.82"
   inkscape:version="0.92.3 (3ce5693, 2018-03-11)"
   sodipodi:docname="sticker.svg">
  <defs
     id="defs2">
    <linearGradient
       inkscape:collect="always"
       id="linearGradient4651">
      <stop
         style="stop-color:#00ff00;stop-opacity:1"
         offset="0"
         id="stop4647" />
      <stop
         style="stop-color:#ffff00;stop-opacity:0.99529409"
         offset="1"
         id="stop4649" />
    </linearGradient>
    <linearGradient
       inkscape:collect="always"
       xlink:href="#linearGradient4651"
       id="linearGradient4653"
       x1="10.544426"
       y1="116.75"
       x2="74.309006"
       y2="180.77916"
       gradientUnits="userSpaceOnUse" />
  </defs>
  <sodipodi:namedview
     id="base"
     pagecolor="#ffffff"
     bordercolor="#666666"
     borderopacity="1.0"
     inkscape:pageopacity="0.0"
     inkscape:pageshadow="2"
     inkscape:zoom="1"
     inkscape:cx="266.64848"
     inkscape:cy="167.21654"
     inkscape:document-units="mm"
     inkscape:current-layer="layer1"
     showgrid="false"
     inkscape:pagecheckerboard="true"
     fit-margin-top="0"
     fit-margin-left="0"
     fit-margin-right="0"
     fit-margin-bottom="0"
     inkscape:window-width="3200"
     inkscape:window-height="1685"
     inkscape:window-x="0"
     inkscape:window-y="0"
     inkscape:window-maximized="1" />
  <metadata
     id="metadata5">
    <rdf:RDF>
      <cc:Work
         rdf:about="">
        <dc:format>image/svg+xml</dc:format>
        <dc:type
           rdf:resource="http://purl.org/dc/dcmitype/StillImage" />
        <dc:title></dc:title>
      </cc:Work>
    </rdf:RDF>
  </metadata>
  <g
     inkscape:label="Layer 1"
     inkscape:groupmode="layer"
     id="layer1"
     transform="translate(-1.6427078,-103.92396)">
    <rect
       style="fill:#ffffff;fill-opacity:1;stroke-width:0.19429883"
       id="rect815"
       width="206.71458"
       height="89.152084"
       x="1.6427078"
       y="103.92396"
       rx="15.312191"
       ry="10.69825" />
    <circle
       style="fill:url(#linearGradient4653);fill-opacity:1;stroke-width:0.23881865"
       id="path4522"
       cx="42.162132"
       cy="148.5"
       r="31.88229"
       inkscape:export-xdpi="125.82"
       inkscape:export-ydpi="125.82" />
    <g
       id="g4536"
       transform="matrix(1.1926371,0,0,1.1926371,-57.6715,-14.875773)">
      <g
         aria-label="bell.lahs.club"
         style="font-style:normal;font-weight:normal;font-size:17.48633766px;line-height:1.25;font-family:sans-serif;letter-spacing:0px;word-spacing:0px;fill:#000000;fill-opacity:1;stroke:none;stroke-width:0.43715841"
         id="text4526">
        <path
           d="m 123.63824,133.23343 q 0,2.11749 -0.97336,3.40677 -0.97336,1.28073 -2.6127,1.28073 -1.75034,0 -2.70663,-1.23804 l -0.0768,1.06728 h -1.45151 v -13.11476 h 1.57958 v 4.89242 q 0.95628,-1.18681 2.63832,-1.18681 1.68204,0 2.63832,1.27219 0.96482,1.2722 0.96482,3.48361 z m -1.57957,-0.1793 q 0,-1.61373 -0.6233,-2.49317 -0.62329,-0.87944 -1.79303,-0.87944 -1.5625,0 -2.24556,1.4515 v 3.9959 q 0.72575,1.45151 2.26264,1.45151 1.13558,0 1.76741,-0.87944 0.63184,-0.87944 0.63184,-2.64686 z"
           style="font-style:normal;font-variant:normal;font-weight:normal;font-stretch:normal;font-family:roboto;-inkscape-font-specification:roboto;stroke-width:0.43715841"
           id="path4553"
           inkscape:connector-curvature="0" />
        <path
           d="m 129.45279,137.92093 q -1.87841,0 -3.05669,-1.22951 -1.17828,-1.23804 -1.17828,-3.3043 v -0.2903 q 0,-1.37466 0.52083,-2.45048 0.52937,-1.08435 1.46858,-1.69057 0.94775,-0.61475 2.04918,-0.61475 1.80157,0 2.80055,1.18681 0.99897,1.18682 0.99897,3.39823 v 0.65744 h -6.25853 q 0.0341,1.36612 0.79405,2.21141 0.76844,0.83675 1.94672,0.83675 0.83675,0 1.41735,-0.34153 0.5806,-0.34153 1.01606,-0.90506 l 0.96482,0.75137 q -1.1612,1.78449 -3.48361,1.78449 z m -0.19638,-8.2821 q -0.95628,0 -1.60519,0.70014 -0.64891,0.69159 -0.8026,1.94672 h 4.62774 v -0.11954 q -0.0683,-1.20389 -0.64891,-1.86134 -0.5806,-0.66598 -1.57104,-0.66598 z"
           style="font-style:normal;font-variant:normal;font-weight:normal;font-stretch:normal;font-family:roboto;-inkscape-font-specification:roboto;stroke-width:0.43715841"
           id="path4555"
           inkscape:connector-curvature="0" />
        <path
           d="m 136.59077,137.75017 h -1.57958 v -13.11476 h 1.57958 z"
           style="font-style:normal;font-variant:normal;font-weight:normal;font-stretch:normal;font-family:roboto;-inkscape-font-specification:roboto;stroke-width:0.43715841"
           id="path4557"
           inkscape:connector-curvature="0" />
        <path
           d="m 140.82574,137.75017 h -1.57957 v -13.11476 h 1.57957 z"
           style="font-style:normal;font-variant:normal;font-weight:normal;font-stretch:normal;font-family:roboto;-inkscape-font-specification:roboto;stroke-width:0.43715841"
           id="path4559"
           inkscape:connector-curvature="0" />
        <path
           d="m 143.37868,136.92196 q 0,-0.40984 0.23907,-0.68306 0.24761,-0.27323 0.73429,-0.27323 0.48668,0 0.73429,0.27323 0.25615,0.27322 0.25615,0.68306 0,0.39276 -0.25615,0.65744 -0.24761,0.26469 -0.73429,0.26469 -0.48668,0 -0.73429,-0.26469 -0.23907,-0.26468 -0.23907,-0.65744 z"
           style="font-style:normal;font-variant:normal;font-weight:normal;font-stretch:normal;font-family:roboto;-inkscape-font-specification:roboto;stroke-width:0.43715841"
           id="path4561"
           inkscape:connector-curvature="0" />
        <path
           d="m 149.67137,137.75017 h -1.57958 v -13.11476 h 1.57958 z"
           style="font-style:normal;font-variant:normal;font-weight:normal;font-stretch:normal;font-family:roboto;-inkscape-font-specification:roboto;stroke-width:0.43715841"
           id="path4563"
           inkscape:connector-curvature="0" />
        <path
           d="m 157.8937,137.75017 q -0.13661,-0.27323 -0.22199,-0.97336 -1.10144,1.14412 -2.62978,1.14412 -1.36612,0 -2.24556,-0.76844 -0.8709,-0.77698 -0.8709,-1.9638 0,-1.44296 1.09289,-2.23702 1.10144,-0.80259 3.09085,-0.80259 h 1.53688 v -0.72576 q 0,-0.82821 -0.49521,-1.31489 -0.49522,-0.49522 -1.46005,-0.49522 -0.84528,0 -1.41734,0.42692 -0.57207,0.42691 -0.57207,1.03313 h -1.58811 q 0,-0.6916 0.48668,-1.33197 0.49522,-0.64891 1.33197,-1.02459 0.84528,-0.37568 1.8528,-0.37568 1.59665,0 2.5017,0.80259 0.90506,0.79406 0.93921,2.19433 v 4.25205 q 0,1.2722 0.32445,2.02357 v 0.13661 z m -2.62124,-1.2039 q 0.74283,0 1.40881,-0.38422 0.66599,-0.38422 0.96482,-0.99897 v -1.89549 h -1.23804 q -2.90301,0 -2.90301,1.69911 0,0.74283 0.49522,1.1612 0.49522,0.41837 1.2722,0.41837 z"
           style="font-style:normal;font-variant:normal;font-weight:normal;font-stretch:normal;font-family:roboto;-inkscape-font-specification:roboto;stroke-width:0.43715841"
           id="path4565"
           inkscape:connector-curvature="0" />
        <path
           d="m 163.29841,129.63029 q 1.05021,-1.28927 2.73225,-1.28927 2.92862,0 2.95423,3.3043 v 6.10485 h -1.57958 v -6.11339 q -0.009,-0.99898 -0.46106,-1.47712 -0.44399,-0.47814 -1.39174,-0.47814 -0.76844,0 -1.34904,0.40984 -0.5806,0.40983 -0.90506,1.07582 v 6.58299 h -1.57957 v -13.11476 h 1.57957 z"
           style="font-style:normal;font-variant:normal;font-weight:normal;font-stretch:normal;font-family:roboto;-inkscape-font-specification:roboto;stroke-width:0.43715841"
           id="path4567"
           inkscape:connector-curvature="0" />
        <path
           d="m 176.72909,135.29969 q 0,-0.64037 -0.48668,-0.99044 -0.47815,-0.3586 -1.68204,-0.61475 -1.19536,-0.25615 -1.90403,-0.61476 -0.70014,-0.3586 -1.04167,-0.85382 -0.33299,-0.49522 -0.33299,-1.17828 0,-1.13559 0.95629,-1.92111 0.96482,-0.78551 2.45901,-0.78551 1.57104,0 2.5444,0.81113 0.9819,0.81113 0.9819,2.07479 h -1.58812 q 0,-0.6489 -0.55498,-1.11851 -0.54645,-0.4696 -1.3832,-0.4696 -0.86236,0 -1.34904,0.37568 -0.48668,0.37569 -0.48668,0.9819 0,0.57206 0.45253,0.86236 0.45252,0.29031 1.6308,0.55499 1.18682,0.26469 1.92111,0.63183 0.73429,0.36715 1.08436,0.88798 0.3586,0.51229 0.3586,1.25512 0,1.23805 -0.99044,1.98942 -0.99043,0.74282 -2.57001,0.74282 -1.10997,0 -1.9638,-0.39276 -0.85382,-0.39276 -1.3405,-1.09289 -0.47814,-0.70868 -0.47814,-1.52835 h 1.57957 q 0.0427,0.79406 0.63183,1.26366 0.59768,0.46107 1.57104,0.46107 0.89652,0 1.43443,-0.35861 0.54645,-0.36714 0.54645,-0.97336 z"
           style="font-style:normal;font-variant:normal;font-weight:normal;font-stretch:normal;font-family:roboto;-inkscape-font-specification:roboto;stroke-width:0.43715841"
           id="path4569"
           inkscape:connector-curvature="0" />
        <path
           d="m 180.40054,136.92196 q 0,-0.40984 0.23907,-0.68306 0.24761,-0.27323 0.73429,-0.27323 0.48668,0 0.73429,0.27323 0.25614,0.27322 0.25614,0.68306 0,0.39276 -0.25614,0.65744 -0.24761,0.26469 -0.73429,0.26469 -0.48668,0 -0.73429,-0.26469 -0.23907,-0.26468 -0.23907,-0.65744 z"
           style="font-style:normal;font-variant:normal;font-weight:normal;font-stretch:normal;font-family:roboto;-inkscape-font-specification:roboto;stroke-width:0.43715841"
           id="path4571"
           inkscape:connector-curvature="0" />
        <path
           d="m 188.68263,136.63166 q 0.84529,0 1.47712,-0.5123 0.63183,-0.51229 0.70014,-1.28074 h 1.49419 q -0.0427,0.79406 -0.54645,1.51127 -0.50375,0.71722 -1.34904,1.14413 -0.83675,0.42691 -1.77596,0.42691 -1.88695,0 -3.00546,-1.25512 -1.10997,-1.26366 -1.10997,-3.44945 v -0.26469 q 0,-1.34904 0.49521,-2.39925 0.49522,-1.0502 1.41735,-1.6308 0.93067,-0.5806 2.19433,-0.5806 1.55397,0 2.57856,0.93066 1.03313,0.93067 1.10143,2.41633 h -1.49419 q -0.0683,-0.89652 -0.68306,-1.46858 -0.60622,-0.5806 -1.50274,-0.5806 -1.20389,0 -1.86987,0.8709 -0.65745,0.86236 -0.65745,2.50171 v 0.29884 q 0,1.59665 0.65745,2.45901 0.65744,0.86237 1.87841,0.86237 z"
           style="font-style:normal;font-variant:normal;font-weight:normal;font-stretch:normal;font-family:roboto;-inkscape-font-specification:roboto;stroke-width:0.43715841"
           id="path4573"
           inkscape:connector-curvature="0" />
        <path
           d="m 195.84623,137.75017 h -1.57958 v -13.11476 h 1.57958 z"
           style="font-style:normal;font-variant:normal;font-weight:normal;font-stretch:normal;font-family:roboto;-inkscape-font-specification:roboto;stroke-width:0.43715841"
           id="path4575"
           inkscape:connector-curvature="0" />
        <path
           d="m 204.06856,136.83658 q -0.92213,1.08435 -2.70662,1.08435 -1.47712,0 -2.2541,-0.85382 -0.76844,-0.86237 -0.77698,-2.5444 v -6.01093 h 1.57957 v 5.96824 q 0,2.10041 1.70765,2.10041 1.81011,0 2.40779,-1.34905 v -6.7196 h 1.57958 v 9.23839 h -1.50274 z"
           style="font-style:normal;font-variant:normal;font-weight:normal;font-stretch:normal;font-family:roboto;-inkscape-font-specification:roboto;stroke-width:0.43715841"
           id="path4577"
           inkscape:connector-curvature="0" />
        <path
           d="m 215.8172,133.23343 q 0,2.11749 -0.97336,3.40677 -0.97336,1.28073 -2.61271,1.28073 -1.75034,0 -2.70662,-1.23804 l -0.0768,1.06728 h -1.4515 v -13.11476 h 1.57958 v 4.89242 q 0.95628,-1.18681 2.63832,-1.18681 1.68203,0 2.63831,1.27219 0.96483,1.2722 0.96483,3.48361 z m -1.57958,-0.1793 q 0,-1.61373 -0.62329,-2.49317 -0.62329,-0.87944 -1.79303,-0.87944 -1.5625,0 -2.24556,1.4515 v 3.9959 q 0.72575,1.45151 2.26263,1.45151 1.13559,0 1.76742,-0.87944 0.63183,-0.87944 0.63183,-2.64686 z"
           style="font-style:normal;font-variant:normal;font-weight:normal;font-stretch:normal;font-family:roboto;-inkscape-font-specification:roboto;stroke-width:0.43715841"
           id="path4579"
           inkscape:connector-curvature="0" />
      </g>
      <g
         aria-label="powered by countdown.zone"
         style="font-style:normal;font-weight:normal;font-size:7.92355013px;line-height:1.25;font-family:sans-serif;letter-spacing:0px;word-spacing:0px;fill:#000000;fill-opacity:1;stroke:none;stroke-width:0.19808872"
         id="text4530">
        <path
           d="m 119.35342,145.6012 q 0,0.95562 -0.43719,1.53983 -0.43719,0.58421 -1.18389,0.58421 -0.76218,0 -1.19937,-0.48362 v 2.01571 h -0.71575 v -5.79564 h 0.65385 l 0.0348,0.46427 q 0.43719,-0.54165 1.21484,-0.54165 0.75444,0 1.19163,0.56873 0.44106,0.56873 0.44106,1.58239 z m -0.71575,-0.0813 q 0,-0.70801 -0.30178,-1.11812 -0.30178,-0.4101 -0.82795,-0.4101 -0.64998,0 -0.97497,0.57647 v 2.00023 q 0.32112,0.5726 0.98271,0.5726 0.51457,0 0.81634,-0.40624 0.30565,-0.4101 0.30565,-1.21484 z"
           style="font-style:normal;font-variant:normal;font-weight:normal;font-stretch:normal;font-family:roboto;-inkscape-font-specification:roboto;fill:#666666;stroke-width:0.19808872"
           id="path4582"
           inkscape:connector-curvature="0" />
        <path
           d="m 120.06917,145.51608 q 0,-0.61516 0.23987,-1.10651 0.24374,-0.49135 0.67319,-0.75831 0.43332,-0.26695 0.98658,-0.26695 0.85503,0 1.3812,0.59194 0.53004,0.59195 0.53004,1.57465 v 0.0503 q 0,0.61129 -0.236,1.09877 -0.23214,0.48362 -0.66932,0.75444 -0.43332,0.27083 -0.99819,0.27083 -0.85116,0 -1.3812,-0.59195 -0.52617,-0.59194 -0.52617,-1.56691 z m 0.71962,0.0851 q 0,0.6964 0.32112,1.11812 0.32499,0.42171 0.86663,0.42171 0.54552,0 0.86664,-0.42558 0.32112,-0.42945 0.32112,-1.19937 0,-0.68867 -0.32885,-1.11425 -0.32499,-0.42945 -0.86664,-0.42945 -0.53005,0 -0.85503,0.42172 -0.32499,0.42171 -0.32499,1.2071 z"
           style="font-style:normal;font-variant:normal;font-weight:normal;font-stretch:normal;font-family:roboto;-inkscape-font-specification:roboto;fill:#666666;stroke-width:0.19808872"
           id="path4584"
           inkscape:connector-curvature="0" />
        <path
           d="m 128.48407,146.66128 0.80474,-3.19959 h 0.71575 l -1.21871,4.18617 h -0.58034 l -1.01753,-3.17252 -0.99044,3.17252 h -0.58034 l -1.21484,-4.18617 h 0.71188 l 0.82408,3.13382 0.97497,-3.13382 h 0.57647 z"
           style="font-style:normal;font-variant:normal;font-weight:normal;font-stretch:normal;font-family:roboto;-inkscape-font-specification:roboto;fill:#666666;stroke-width:0.19808872"
           id="path4586"
           inkscape:connector-curvature="0" />
        <path
           d="m 132.47293,147.72524 q -0.85116,0 -1.38508,-0.55713 -0.53391,-0.56099 -0.53391,-1.49727 v -0.13154 q 0,-0.6229 0.23601,-1.11038 0.23987,-0.49136 0.66545,-0.76605 0.42945,-0.27856 0.92854,-0.27856 0.81635,0 1.26901,0.53778 0.45266,0.53778 0.45266,1.53983 v 0.2979 h -2.83592 q 0.0155,0.61903 0.35981,1.00205 0.34821,0.37916 0.88212,0.37916 0.37915,0 0.64224,-0.15476 0.26308,-0.15475 0.4604,-0.4101 l 0.43719,0.34046 q -0.52618,0.80861 -1.57852,0.80861 z m -0.089,-3.75286 q -0.43332,0 -0.72735,0.31725 -0.29404,0.31339 -0.36368,0.88212 h 2.09695 v -0.0542 q -0.0309,-0.54551 -0.29404,-0.84342 -0.26308,-0.30178 -0.71188,-0.30178 z"
           style="font-style:normal;font-variant:normal;font-weight:normal;font-stretch:normal;font-family:roboto;-inkscape-font-specification:roboto;fill:#666666;stroke-width:0.19808872"
           id="path4588"
           inkscape:connector-curvature="0" />
        <path
           d="m 136.95314,144.10393 q -0.1625,-0.0271 -0.35207,-0.0271 -0.70415,0 -0.95563,0.59969 v 2.97133 h -0.71575 v -4.18617 h 0.69641 l 0.0116,0.48361 q 0.35208,-0.56099 0.99819,-0.56099 0.20892,0 0.31725,0.0542 z"
           style="font-style:normal;font-variant:normal;font-weight:normal;font-stretch:normal;font-family:roboto;-inkscape-font-specification:roboto;fill:#666666;stroke-width:0.19808872"
           id="path4590"
           inkscape:connector-curvature="0" />
        <path
           d="m 139.26675,147.72524 q -0.85116,0 -1.38507,-0.55713 -0.53391,-0.56099 -0.53391,-1.49727 v -0.13154 q 0,-0.6229 0.236,-1.11038 0.23988,-0.49136 0.66546,-0.76605 0.42945,-0.27856 0.92854,-0.27856 0.81634,0 1.269,0.53778 0.45267,0.53778 0.45267,1.53983 v 0.2979 h -2.83592 q 0.0155,0.61903 0.35981,1.00205 0.3482,0.37916 0.88211,0.37916 0.37916,0 0.64224,-0.15476 0.26309,-0.15475 0.46041,-0.4101 l 0.43718,0.34046 q -0.52617,0.80861 -1.57852,0.80861 z m -0.089,-3.75286 q -0.43332,0 -0.72736,0.31725 -0.29404,0.31339 -0.36368,0.88212 h 2.09696 v -0.0542 q -0.031,-0.54551 -0.29404,-0.84342 -0.26309,-0.30178 -0.71188,-0.30178 z"
           style="font-style:normal;font-variant:normal;font-weight:normal;font-stretch:normal;font-family:roboto;-inkscape-font-specification:roboto;fill:#666666;stroke-width:0.19808872"
           id="path4592"
           inkscape:connector-curvature="0" />
        <path
           d="m 141.54942,145.51995 q 0,-0.96336 0.45653,-1.54757 0.45653,-0.58807 1.19549,-0.58807 0.7351,0 1.16455,0.50296 v -2.18207 h 0.71575 v 5.94266 h -0.65772 l -0.0348,-0.4488 q -0.42945,0.52618 -1.19549,0.52618 -0.72736,0 -1.18776,-0.59582 -0.45653,-0.59581 -0.45653,-1.5553 z m 0.71575,0.0813 q 0,0.71188 0.29403,1.11425 0.29404,0.40237 0.81248,0.40237 0.68093,0 0.99431,-0.61129 v -1.92286 q -0.32112,-0.59194 -0.98658,-0.59194 -0.52617,0 -0.82021,0.40623 -0.29403,0.40624 -0.29403,1.20324 z"
           style="font-style:normal;font-variant:normal;font-weight:normal;font-stretch:normal;font-family:roboto;-inkscape-font-specification:roboto;fill:#666666;stroke-width:0.19808872"
           id="path4594"
           inkscape:connector-curvature="0" />
        <path
           d="m 151.70533,145.6012 q 0,0.95949 -0.44106,1.5437 -0.44105,0.58034 -1.18389,0.58034 -0.79312,0 -1.22644,-0.561 l -0.0348,0.48362 h -0.65772 v -5.94266 h 0.71575 v 2.21689 q 0.43332,-0.53778 1.1955,-0.53778 0.76217,0 1.19549,0.57647 0.43719,0.57647 0.43719,1.57852 z m -0.71575,-0.0813 q 0,-0.73122 -0.28243,-1.12972 -0.28243,-0.3985 -0.81247,-0.3985 -0.70802,0 -1.01753,0.65771 v 1.81066 q 0.32886,0.65772 1.02526,0.65772 0.51457,0 0.80087,-0.3985 0.2863,-0.3985 0.2863,-1.19937 z"
           style="font-style:normal;font-variant:normal;font-weight:normal;font-stretch:normal;font-family:roboto;-inkscape-font-specification:roboto;fill:#666666;stroke-width:0.19808872"
           id="path4596"
           inkscape:connector-curvature="0" />
        <path
           d="m 153.92609,146.59938 0.97497,-3.13769 h 0.76605 l -1.68298,4.83228 q -0.39076,1.04461 -1.24193,1.04461 l -0.13541,-0.0116 -0.26695,-0.0503 v -0.58033 l 0.19344,0.0155 q 0.36368,0 0.56486,-0.14702 0.20506,-0.14702 0.3366,-0.53778 l 0.15863,-0.42558 -1.49341,-4.13974 h 0.78153 z"
           style="font-style:normal;font-variant:normal;font-weight:normal;font-stretch:normal;font-family:roboto;-inkscape-font-specification:roboto;fill:#666666;stroke-width:0.19808872"
           id="path4598"
           inkscape:connector-curvature="0" />
        <path
           d="m 159.94614,147.14103 q 0.38302,0 0.66932,-0.23214 0.2863,-0.23213 0.31725,-0.58033 h 0.67706 q -0.0193,0.35981 -0.24761,0.68479 -0.22826,0.32499 -0.61129,0.51844 -0.37915,0.19345 -0.80473,0.19345 -0.85503,0 -1.36186,-0.56874 -0.50296,-0.5726 -0.50296,-1.56304 v -0.11994 q 0,-0.61129 0.22439,-1.08716 0.2244,-0.47588 0.64225,-0.73897 0.42171,-0.26308 0.99431,-0.26308 0.70414,0 1.16841,0.42171 0.46814,0.42171 0.49909,1.0949 h -0.67706 q -0.0309,-0.40623 -0.30951,-0.66545 -0.2747,-0.26309 -0.68093,-0.26309 -0.54552,0 -0.8473,0.39463 -0.2979,0.39076 -0.2979,1.1336 v 0.13541 q 0,0.72349 0.2979,1.11425 0.29791,0.39076 0.85117,0.39076 z"
           style="font-style:normal;font-variant:normal;font-weight:normal;font-stretch:normal;font-family:roboto;-inkscape-font-specification:roboto;fill:#666666;stroke-width:0.19808872"
           id="path4600"
           inkscape:connector-curvature="0" />
        <path
           d="m 162.22493,145.51608 q 0,-0.61516 0.23987,-1.10651 0.24374,-0.49135 0.67319,-0.75831 0.43332,-0.26695 0.98658,-0.26695 0.85503,0 1.3812,0.59194 0.53005,0.59195 0.53005,1.57465 v 0.0503 q 0,0.61129 -0.23601,1.09877 -0.23213,0.48362 -0.66932,0.75444 -0.43332,0.27083 -0.99818,0.27083 -0.85117,0 -1.38121,-0.59195 -0.52617,-0.59194 -0.52617,-1.56691 z m 0.71962,0.0851 q 0,0.6964 0.32112,1.11812 0.32499,0.42171 0.86664,0.42171 0.54551,0 0.86663,-0.42558 0.32112,-0.42945 0.32112,-1.19937 0,-0.68867 -0.32885,-1.11425 -0.32499,-0.42945 -0.86664,-0.42945 -0.53004,0 -0.85503,0.42172 -0.32499,0.42171 -0.32499,1.2071 z"
           style="font-style:normal;font-variant:normal;font-weight:normal;font-stretch:normal;font-family:roboto;-inkscape-font-specification:roboto;fill:#666666;stroke-width:0.19808872"
           id="path4602"
           inkscape:connector-curvature="0" />
        <path
           d="m 169.51785,147.23388 q -0.41785,0.49136 -1.22645,0.49136 -0.66933,0 -1.0214,-0.3869 -0.3482,-0.39076 -0.35207,-1.15293 v -2.72372 h 0.71575 v 2.70437 q 0,0.95176 0.77379,0.95176 0.82021,0 1.09103,-0.61129 v -3.04484 h 0.71575 v 4.18617 h -0.68093 z"
           style="font-style:normal;font-variant:normal;font-weight:normal;font-stretch:normal;font-family:roboto;-inkscape-font-specification:roboto;fill:#666666;stroke-width:0.19808872"
           id="path4604"
           inkscape:connector-curvature="0" />
        <path
           d="m 171.97461,143.46169 0.0232,0.52617 q 0.47975,-0.60355 1.25354,-0.60355 1.32704,0 1.33864,1.49727 v 2.76628 h -0.71575 v -2.77015 q -0.004,-0.45266 -0.20892,-0.66932 -0.20118,-0.21666 -0.63063,-0.21666 -0.34821,0 -0.61129,0.18571 -0.26309,0.1857 -0.41011,0.48748 v 2.98294 h -0.71575 v -4.18617 z"
           style="font-style:normal;font-variant:normal;font-weight:normal;font-stretch:normal;font-family:roboto;-inkscape-font-specification:roboto;fill:#666666;stroke-width:0.19808872"
           id="path4606"
           inkscape:connector-curvature="0" />
        <path
           d="m 176.64827,142.44803 v 1.01366 h 0.78152 v 0.55325 h -0.78152 v 2.59605 q 0,0.25148 0.10446,0.37915 0.10446,0.12381 0.35594,0.12381 0.12381,0 0.34047,-0.0464 v 0.58034 q -0.28244,0.0774 -0.54939,0.0774 -0.47975,0 -0.72349,-0.29017 -0.24374,-0.29017 -0.24374,-0.82408 v -2.59605 h -0.76218 v -0.55325 h 0.76218 v -1.01366 z"
           style="font-style:normal;font-variant:normal;font-weight:normal;font-stretch:normal;font-family:roboto;-inkscape-font-specification:roboto;fill:#666666;stroke-width:0.19808872"
           id="path4608"
           inkscape:connector-curvature="0" />
        <path
           d="m 178.08751,145.51995 q 0,-0.96336 0.45653,-1.54757 0.45653,-0.58807 1.1955,-0.58807 0.73509,0 1.16454,0.50296 v -2.18207 h 0.71575 v 5.94266 h -0.65771 l -0.0348,-0.4488 q -0.42945,0.52618 -1.19549,0.52618 -0.72736,0 -1.18776,-0.59582 -0.45653,-0.59581 -0.45653,-1.5553 z m 0.71575,0.0813 q 0,0.71188 0.29404,1.11425 0.29403,0.40237 0.81247,0.40237 0.68093,0 0.99431,-0.61129 v -1.92286 q -0.32112,-0.59194 -0.98657,-0.59194 -0.52618,0 -0.82021,0.40623 -0.29404,0.40624 -0.29404,1.20324 z"
           style="font-style:normal;font-variant:normal;font-weight:normal;font-stretch:normal;font-family:roboto;-inkscape-font-specification:roboto;fill:#666666;stroke-width:0.19808872"
           id="path4610"
           inkscape:connector-curvature="0" />
        <path
           d="m 182.5445,145.51608 q 0,-0.61516 0.23987,-1.10651 0.24375,-0.49135 0.6732,-0.75831 0.43331,-0.26695 0.98657,-0.26695 0.85503,0 1.38121,0.59194 0.53004,0.59195 0.53004,1.57465 v 0.0503 q 0,0.61129 -0.23601,1.09877 -0.23213,0.48362 -0.66932,0.75444 -0.43332,0.27083 -0.99818,0.27083 -0.85116,0 -1.38121,-0.59195 -0.52617,-0.59194 -0.52617,-1.56691 z m 0.71962,0.0851 q 0,0.6964 0.32112,1.11812 0.32499,0.42171 0.86664,0.42171 0.54552,0 0.86664,-0.42558 0.32112,-0.42945 0.32112,-1.19937 0,-0.68867 -0.32886,-1.11425 -0.32499,-0.42945 -0.86664,-0.42945 -0.53004,0 -0.85503,0.42172 -0.32499,0.42171 -0.32499,1.2071 z"
           style="font-style:normal;font-variant:normal;font-weight:normal;font-stretch:normal;font-family:roboto;-inkscape-font-specification:roboto;fill:#666666;stroke-width:0.19808872"
           id="path4612"
           inkscape:connector-curvature="0" />
        <path
           d="m 190.95941,146.66128 0.80474,-3.19959 h 0.71575 l -1.21871,4.18617 h -0.58034 l -1.01753,-3.17252 -0.99044,3.17252 h -0.58034 l -1.21484,-4.18617 h 0.71188 l 0.82408,3.13382 0.97497,-3.13382 h 0.57647 z"
           style="font-style:normal;font-variant:normal;font-weight:normal;font-stretch:normal;font-family:roboto;-inkscape-font-specification:roboto;fill:#666666;stroke-width:0.19808872"
           id="path4614"
           inkscape:connector-curvature="0" />
        <path
           d="m 193.88818,143.46169 0.0232,0.52617 q 0.47974,-0.60355 1.25353,-0.60355 1.32704,0 1.33864,1.49727 v 2.76628 h -0.71575 v -2.77015 q -0.004,-0.45266 -0.20892,-0.66932 -0.20118,-0.21666 -0.63063,-0.21666 -0.34821,0 -0.61129,0.18571 -0.26309,0.1857 -0.41011,0.48748 v 2.98294 h -0.71575 v -4.18617 z"
           style="font-style:normal;font-variant:normal;font-weight:normal;font-stretch:normal;font-family:roboto;-inkscape-font-specification:roboto;fill:#666666;stroke-width:0.19808872"
           id="path4616"
           inkscape:connector-curvature="0" />
        <path
           d="m 197.60621,147.27257 q 0,-0.18571 0.10833,-0.30951 0.1122,-0.12381 0.33273,-0.12381 0.22053,0 0.33273,0.12381 0.11606,0.1238 0.11606,0.30951 0,0.17797 -0.11606,0.29791 -0.1122,0.11994 -0.33273,0.11994 -0.22053,0 -0.33273,-0.11994 -0.10833,-0.11994 -0.10833,-0.29791 z"
           style="font-style:normal;font-variant:normal;font-weight:normal;font-stretch:normal;font-family:roboto;-inkscape-font-specification:roboto;fill:#666666;stroke-width:0.19808872"
           id="path4618"
           inkscape:connector-curvature="0" />
        <path
           d="m 200.35315,147.06365 h 2.44902 v 0.58421 h -3.3234 v -0.52618 l 2.30975,-3.06805 h -2.27493 v -0.59194 h 3.17252 v 0.50682 z"
           style="font-style:normal;font-variant:normal;font-weight:normal;font-stretch:normal;font-family:roboto;-inkscape-font-specification:roboto;fill:#666666;stroke-width:0.19808872"
           id="path4620"
           inkscape:connector-curvature="0" />
        <path
           d="m 203.3593,145.51608 q 0,-0.61516 0.23987,-1.10651 0.24374,-0.49135 0.67319,-0.75831 0.43332,-0.26695 0.98658,-0.26695 0.85503,0 1.3812,0.59194 0.53004,0.59195 0.53004,1.57465 v 0.0503 q 0,0.61129 -0.236,1.09877 -0.23214,0.48362 -0.66932,0.75444 -0.43332,0.27083 -0.99819,0.27083 -0.85116,0 -1.3812,-0.59195 -0.52617,-0.59194 -0.52617,-1.56691 z m 0.71962,0.0851 q 0,0.6964 0.32112,1.11812 0.32499,0.42171 0.86663,0.42171 0.54552,0 0.86664,-0.42558 0.32112,-0.42945 0.32112,-1.19937 0,-0.68867 -0.32885,-1.11425 -0.32499,-0.42945 -0.86664,-0.42945 -0.53005,0 -0.85503,0.42172 -0.32499,0.42171 -0.32499,1.2071 z"
           style="font-style:normal;font-variant:normal;font-weight:normal;font-stretch:normal;font-family:roboto;-inkscape-font-specification:roboto;fill:#666666;stroke-width:0.19808872"
           id="path4622"
           inkscape:connector-curvature="0" />
        <path
           d="m 208.74483,143.46169 0.0232,0.52617 q 0.47974,-0.60355 1.25353,-0.60355 1.32704,0 1.33864,1.49727 v 2.76628 h -0.71575 v -2.77015 q -0.004,-0.45266 -0.20892,-0.66932 -0.20118,-0.21666 -0.63063,-0.21666 -0.34821,0 -0.61129,0.18571 -0.26309,0.1857 -0.41011,0.48748 v 2.98294 h -0.71575 v -4.18617 z"
           style="font-style:normal;font-variant:normal;font-weight:normal;font-stretch:normal;font-family:roboto;-inkscape-font-specification:roboto;fill:#666666;stroke-width:0.19808872"
           id="path4624"
           inkscape:connector-curvature="0" />
        <path
           d="m 214.18454,147.72524 q -0.85116,0 -1.38507,-0.55713 -0.53391,-0.56099 -0.53391,-1.49727 v -0.13154 q 0,-0.6229 0.236,-1.11038 0.23987,-0.49136 0.66545,-0.76605 0.42945,-0.27856 0.92855,-0.27856 0.81634,0 1.269,0.53778 0.45267,0.53778 0.45267,1.53983 v 0.2979 h -2.83592 q 0.0155,0.61903 0.35981,1.00205 0.3482,0.37916 0.88211,0.37916 0.37915,0 0.64224,-0.15476 0.26309,-0.15475 0.4604,-0.4101 l 0.43719,0.34046 q -0.52617,0.80861 -1.57852,0.80861 z m -0.089,-3.75286 q -0.43332,0 -0.72736,0.31725 -0.29404,0.31339 -0.36368,0.88212 h 2.09696 v -0.0542 q -0.031,-0.54551 -0.29404,-0.84342 -0.26309,-0.30178 -0.71188,-0.30178 z"
           style="font-style:normal;font-variant:normal;font-weight:normal;font-stretch:normal;font-family:roboto;-inkscape-font-specification:roboto;fill:#666666;stroke-width:0.19808872"
           id="path4626"
           inkscape:connector-curvature="0" />
      </g>
    </g>
    <path
       style="opacity:0.1;fill:#000000;fill-opacity:1;stroke-width:0.2388102"
       id="path4522-9"
       sodipodi:type="arc"
       sodipodi:cx="42.161747"
       sodipodi:cy="148.5"
       sodipodi:rx="31.881161"
       sodipodi:ry="31.881161"
       sodipodi:start="2.0943951"
       sodipodi:end="4.712389"
       d="M 26.221167,176.1099 A 31.881161,31.881161 0 0 1 11.36691,140.24855 31.881161,31.881161 0 0 1 42.161747,116.61884 l 0,31.88116 z"
       inkscape:export-xdpi="125.82"
       inkscape:export-ydpi="125.82" />
  </g>
</svg>
